# xmcd
# 
# Track frame offsets:
#     182
#     15930
#     42435
#     60275
#     75952
#     98972
#     116952
#     134410
#     151700
#     172835
#     189655
#     210967
#     223370
#     244552
#     265177
#     283265
#     304925
#     333797
# 
# Disc length: 4603
# 
# Revision: 12
# Processed by: cddbd v1.5.2PL0 Copyright (c) Steve Scherf et al.
# Submitted via: fre:ac v1.0.31
# 
DISCID=f011f912
DTITLE=Classical - The Most Relaxing Classical Album In The World... Ever Disc 2
DYEAR=1997
DGENRE=Classical
TTITLE0=Zion Hört Die Wächter Singen
TTITLE1=Adagio
TTITLE2=Minuet
TTITLE3=Keyboard Concerto No. 5 In F Minor (Largo)
TTITLE4=Méditation (Thaïs)
TTITLE5='Moonlight' Sonata (Adagio Sostenuto)
TTITLE6=Barcarolle (Les Contes d'Hoffman)
TTITLE7=Prayer (Coppélia)
TTITLE8=Clarinet Concerto (Adagio)
TTITLE9=Intermezzo (Cavalleria Rusticana)
TTITLE10=String Serenade (Moderato)
TTITLE11=O Mio Babbino Caro (Gianni Schicchi)
TTITLE12=Fantasia On 'Greensleeves'
TTITLE13=Piano Concerto No. 2 In C Minor (Adagio Sostenuto)
TTITLE14=Nocturne
TTITLE15=Concierto De Aranjuez (Adagio)
TTITLE16=Adagio A
TTITLE17=Entr'acte To Act III (Carmen)
EXTD=YEAR: 1999
EXTT0=
EXTT1=
EXTT2=
EXTT3=
EXTT4=
EXTT5=
EXTT6=
EXTT7=
EXTT8=
EXTT9=
EXTT10=
EXTT11=
EXTT12=
EXTT13=
EXTT14=
EXTT15=
EXTT16=
EXTT17=
PLAYORDER=
